<svg width="184" height="70" viewBox="0 0 184 70" fill="none" xmlns="http://www.w3.org/2000/svg">
<path d="M74.9592 54.5859C80.4279 54.5859 82.5764 51.2461 83.631 49.332H84.1193V54H89.8225V14H83.9826V28.8633H83.631C82.5764 27.0078 80.5842 23.6094 74.9982 23.6094C67.7521 23.6094 62.4201 29.332 62.4201 39.0586C62.4201 48.7656 67.674 54.5859 74.9592 54.5859ZM76.2482 49.6055C71.0334 49.6055 68.3185 45.0156 68.3185 39C68.3185 33.043 70.9748 28.5703 76.2482 28.5703C81.3459 28.5703 84.0803 32.7305 84.0803 39C84.0803 45.3086 81.2873 49.6055 76.2482 49.6055ZM105.104 54.6641C110.065 54.6641 112.858 52.1445 113.971 49.8984H114.206V54H119.909V34.0781C119.909 25.3477 113.034 23.6094 108.268 23.6094C102.839 23.6094 97.8387 25.7969 95.8855 31.2656L101.374 32.5156C102.233 30.3867 104.421 28.3359 108.346 28.3359C112.116 28.3359 114.05 30.3086 114.05 33.707V33.8437C114.05 35.9727 111.862 35.9336 106.471 36.5586C100.788 37.2227 94.9676 38.707 94.9676 45.5234C94.9676 51.4219 99.4012 54.6641 105.104 54.6641ZM106.374 49.9766C103.073 49.9766 100.69 48.4922 100.69 45.6016C100.69 42.4766 103.464 41.3633 106.843 40.9141C108.737 40.6602 113.229 40.1523 114.069 39.3125V43.1797C114.069 46.7344 111.237 49.9766 106.374 49.9766ZM148.384 31.3242C147.173 26.6562 143.521 23.6094 137.037 23.6094C130.259 23.6094 125.454 27.1836 125.454 32.4961C125.454 36.7539 128.033 39.5859 133.658 40.8359L138.736 41.9492C141.626 42.5937 142.974 43.8828 142.974 45.7578C142.974 48.082 140.494 49.8984 136.665 49.8984C133.169 49.8984 130.923 48.3945 130.22 45.4453L124.576 46.3047C125.552 51.6172 129.966 54.6055 136.704 54.6055C143.951 54.6055 148.97 50.7578 148.97 45.3281C148.97 41.0898 146.275 38.4727 140.767 37.2031L136.001 36.1094C132.701 35.3281 131.275 34.2148 131.294 32.1836C131.275 29.8789 133.775 28.2383 137.095 28.2383C140.728 28.2383 142.408 30.25 143.091 32.2617L148.384 31.3242ZM159.447 36.1875C159.447 31.4023 162.475 28.668 166.635 28.668C170.658 28.668 173.061 31.2266 173.061 35.6211V54H178.9V34.918C178.9 27.4375 174.799 23.6094 168.627 23.6094C163.959 23.6094 161.146 25.6406 159.74 28.8828H159.369V14H153.607V54H159.447V36.1875Z" fill="black"/>
<path d="M15.3658 13.0514L38.3141 35.9996C40.2869 37.9724 40.2868 41.1708 38.3141 43.1435L15.3658 66.0918" stroke="black" stroke-width="8.84007"/>
<path d="M4 21.8916L18.1082 35.9998C20.0809 37.9725 20.0809 41.1709 18.1082 43.1436L4 57.2519" stroke="black" stroke-width="8.84007"/>
</svg>
