<svg width="64" height="64" viewBox="0 0 64 64" fill="none" xmlns="http://www.w3.org/2000/svg">
<mask id="mask0" mask-type="alpha" maskUnits="userSpaceOnUse" x="0" y="0" width="64" height="64">
<circle cx="32" cy="32" r="32" fill="#C4C4C4"/>
</mask>
<g mask="url(#mask0)">
<circle cx="32" cy="32" r="32" fill="#65C4FC"/>
<path d="M9.69536 10.1374C9.64199 9.79947 10.0522 9.5907 10.2939 9.83268L11.5553 11.0951C11.6635 11.2034 11.829 11.2296 11.9653 11.1602L13.5558 10.3507C13.8606 10.1955 14.1859 10.5211 14.0305 10.8258L13.2196 12.4156C13.1501 12.5519 13.1763 12.7174 13.2844 12.8256L14.5458 14.0881C14.7876 14.3301 14.5785 14.7401 14.2406 14.6864L12.4781 14.4065C12.327 14.3825 12.1776 14.4585 12.1081 14.5948L11.2973 16.1846C11.1418 16.4893 10.6873 16.4171 10.6339 16.0793L10.3555 14.3165C10.3316 14.1654 10.2132 14.0468 10.0621 14.0228L8.29952 13.7429C7.96168 13.6893 7.88988 13.2346 8.19472 13.0795L9.78519 12.2699C9.92153 12.2005 9.99767 12.0512 9.9738 11.9001L9.69536 10.1374Z" fill="#F5D668"/>
<path d="M59.1304 37.7824C59.3846 37.5535 59.7832 37.7836 59.7121 38.1182L59.6726 38.3041C59.6408 38.4537 59.7089 38.6068 59.8414 38.6833L60.006 38.7783C60.3022 38.9494 60.2065 39.3995 59.8663 39.4353L59.6774 39.4552C59.5252 39.4711 59.4007 39.5833 59.3689 39.7329L59.3294 39.9188C59.2583 40.2534 58.8005 40.3015 58.6614 39.989L58.5841 39.8154C58.5219 39.6756 58.3768 39.5919 58.2246 39.6078L58.0357 39.6277C57.6955 39.6635 57.5083 39.243 57.7625 39.0141L57.9037 38.887C58.0174 38.7846 58.0522 38.6207 57.99 38.4809L57.9127 38.3074C57.7736 37.9949 58.1156 37.6869 58.4118 37.8579L58.5764 37.9529C58.7089 38.0294 58.8755 38.0119 58.9892 37.9095L59.1304 37.7824Z" fill="#F5D668"/>
<path d="M51.519 4.03233C51.4656 3.69445 51.8758 3.48567 52.1175 3.72765L53.3862 4.99736C53.4943 5.10557 53.6598 5.13186 53.7961 5.06247L55.3957 4.24827C55.7006 4.09311 56.0259 4.41869 55.8705 4.7234L55.0549 6.32232C54.9854 6.45859 55.0116 6.62412 55.1197 6.73234L56.3884 8.00205C56.6301 8.24402 56.421 8.65402 56.0832 8.60037L54.3105 8.31884C54.1594 8.29485 54.0101 8.37087 53.9406 8.50714L53.125 10.1061C52.9696 10.4108 52.5151 10.3386 52.4617 10.0007L52.1817 8.22781C52.1578 8.0767 52.0393 7.95815 51.8883 7.93416L50.1156 7.65264C49.7777 7.59898 49.7059 7.14437 50.0108 6.98921L51.6104 6.17501C51.7467 6.10562 51.8229 5.95633 51.799 5.80523L51.519 4.03233Z" fill="#F5D668"/>
<path d="M56.0902 31.5524C56.2166 31.5 56.3362 31.6399 56.2648 31.7566L55.4839 33.032C55.452 33.0842 55.4573 33.1511 55.497 33.1976L56.4687 34.3344C56.5576 34.4384 56.4615 34.5954 56.3284 34.5635L54.8741 34.215C54.8146 34.2007 54.7527 34.2264 54.7207 34.2786L53.9398 35.554C53.8684 35.6707 53.6894 35.6278 53.6786 35.4914L53.5607 34.0005C53.5558 33.9395 53.5123 33.8886 53.4528 33.8743L51.9985 33.5258C51.8654 33.4939 51.8509 33.3104 51.9773 33.258L53.3587 32.6851C53.4152 32.6617 53.4502 32.6045 53.4454 32.5435L53.3275 31.0527C53.3167 30.9163 53.4867 30.8457 53.5756 30.9497L54.5473 32.0865C54.5871 32.1331 54.6523 32.1487 54.7088 32.1252L56.0902 31.5524Z" fill="#F5D668"/>
<path d="M9.18376 34.1389C9.31015 34.0865 9.42977 34.2265 9.35832 34.3432L9.12495 34.7243C9.093 34.7765 9.09828 34.8433 9.13804 34.8898L9.42844 35.2296C9.51734 35.3336 9.42121 35.4906 9.28816 35.4587L8.85353 35.3545C8.79402 35.3403 8.7321 35.366 8.70015 35.4182L8.46678 35.7993C8.39533 35.916 8.2163 35.8731 8.20551 35.7367L8.17027 35.2912C8.16544 35.2302 8.12189 35.1792 8.06238 35.1649L7.62775 35.0608C7.4947 35.0289 7.48018 34.8454 7.60657 34.793L8.01942 34.6218C8.07594 34.5983 8.11094 34.5411 8.10612 34.4801L8.07087 34.0346C8.06008 33.8982 8.23014 33.8277 8.31904 33.9317L8.60944 34.2714C8.6492 34.3179 8.71439 34.3336 8.77091 34.3101L9.18376 34.1389Z" fill="#F5D668"/>
<path d="M55.1066 15.9612C55.233 15.9088 55.3526 16.0487 55.2812 16.1654L55.0478 16.5466C55.0158 16.5988 55.0211 16.6656 55.0609 16.7121L55.3513 17.0518C55.4402 17.1559 55.3441 17.3129 55.211 17.281L54.7764 17.1768C54.7169 17.1626 54.655 17.1882 54.623 17.2404L54.3896 17.6216C54.3182 17.7383 54.1392 17.6954 54.1284 17.559L54.0931 17.1134C54.0883 17.0524 54.0447 17.0015 53.9852 16.9872L53.5506 16.883C53.4175 16.8512 53.403 16.6676 53.5294 16.6152L53.9423 16.444C53.9988 16.4206 54.0338 16.3634 54.029 16.3024L53.9937 15.8569C53.9829 15.7205 54.153 15.6499 54.2419 15.754L54.5323 16.0937C54.5721 16.1402 54.6372 16.1558 54.6938 16.1324L55.1066 15.9612Z" fill="#F5D668"/>
<path d="M36.7362 38.4365C36.7362 36.1894 39.08 24.0518 40.2519 18.2639C46.2285 18.2639 49.3925 25.286 49.3925 27.5841C49.3925 29.8823 46.7558 37.2874 53.9629 42.0114C61.1699 46.7353 58.3574 57.2046 58.8848 61.5455C59.3066 65.0183 45.2324 60.0986 38.1425 57.2046C38.4355 55.0341 36.455 50.3152 36.7362 48.1702C37.0878 45.4891 36.7362 41.2453 36.7362 38.4365Z" fill="#4A1F2B"/>
<path d="M8.42246 44.395C9.11443 39.2604 17.937 28.6488 22.2618 23.9848C30.9113 23.9848 27.6245 61.9812 25.5486 65.1903C23.4727 68.3995 18.283 66.6024 13.6122 65.1903C8.94146 63.7783 13.6122 63.5216 13.6122 62.623V58.5153C13.6122 57.36 7.55751 50.8133 8.42246 44.395Z" fill="#4A1F2B"/>
<path d="M40.3673 49.9705C38.6786 51.7237 37.1419 54.8086 32.3037 54.8086C27.4655 54.8086 25.5854 52.5528 23.1649 51.0456L20.4771 62.3347C27.0913 64.0879 35.5038 68.0283 40.3673 64.485C45.2309 60.9417 52.0711 57.2307 51.9585 55.8159L40.3673 49.9705Z" fill="#205675"/>
<path d="M26.6948 53.7853C27.3562 50.4439 26.4043 42.563 25.853 40.2942C30.8534 37.1487 40.4675 34.5103 38.861 39.0893C37.2546 43.6682 38.1917 51.4133 38.861 54.7135C34.53 55.7964 26.0333 57.1268 26.6948 53.7853Z" fill="#D88978"/>
<path d="M43.7751 28.8825C43.7751 34.2893 42.8262 37.3453 40.4752 40.7365C38.3705 43.7725 35.9085 45.7616 32.8246 45.7616C29.7407 45.7616 26.7634 43.7725 24.6587 40.7365C22.3076 37.3453 21.9204 33.8046 21.9204 28.3978C21.9204 18.1507 26.296 10.3284 32.8246 10.3284C39.3532 10.3284 43.7751 18.6353 43.7751 28.8825Z" fill="#D88978"/>
<path d="M38.002 43.5194C34.454 45.5001 29.0329 44.5946 26.2828 42.6594C29.2723 45.6489 34.9425 47.0496 38.002 43.5194Z" fill="#AD4D4D"/>
<path d="M32.3782 39.2191C35.2554 39.1276 37.7867 35.6791 36.6042 35.8953C36.0667 35.9936 34.4226 38.1369 32.3782 38.1439C30.2254 38.1514 27.8379 34.965 27.8379 35.8953C28.133 37.1832 30.1987 39.2884 32.3782 39.2191Z" fill="#BB2F2F"/>
<path d="M29.5825 26.292C29.5825 26.6106 29.4925 26.9094 29.3351 27.1668C29.1051 27.8886 28.3956 28.4144 27.5559 28.4144C26.53 28.4144 25.6983 27.6294 25.6983 26.6611C25.6983 26.5606 25.7073 26.462 25.7245 26.366C25.1746 26.2272 24.3278 25.9816 24.8472 25.9816C25.3903 25.9816 25.9786 25.5119 26.2049 25.277L26.1999 25.2906C26.5355 24.8362 27.0934 24.5388 27.7249 24.5388C28.7508 24.5388 29.5825 25.3238 29.5825 26.292Z" fill="#431637"/>
<ellipse cx="27.7082" cy="26.7201" rx="1.84101" ry="1.68935" fill="white"/>
<ellipse cx="27.7457" cy="26.6301" rx="1.04359" ry="1.05931" fill="#4F2F1D"/>
<path d="M29.7787 22.5845C30.2853 22.4156 30.1164 22.6689 30.2853 21.8245C30.4332 21.0851 28.6209 20.6006 26.9653 20.8835C24.5937 21.2887 22.0411 23.204 23.7786 23.1595C24.7939 23.1335 25.364 22.5394 26.9101 22.2338C28.4562 21.9282 29.272 22.7533 29.7787 22.5845Z" fill="#4A1F2B"/>
<path d="M35.3242 26.2918C35.3242 26.8178 35.5696 27.2896 35.9583 27.611C36.2891 28.0942 36.8648 28.4141 37.5197 28.4141C38.5457 28.4141 39.3774 27.6292 39.3774 26.6609C39.3774 26.5514 39.3667 26.4442 39.3464 26.3403C39.952 26.199 40.7537 25.9814 40.2104 25.9814C39.607 25.9814 38.9533 25.5116 38.7019 25.2768L38.7082 25.2923C38.3727 24.8368 37.8142 24.5386 37.1818 24.5386C36.1559 24.5386 35.3242 25.3235 35.3242 26.2918Z" fill="#431637"/>
<ellipse cx="37.1979" cy="26.7199" rx="1.84101" ry="1.68935" fill="white"/>
<ellipse cx="37.2355" cy="26.6299" rx="1.0436" ry="1.05931" fill="#4F2F1D"/>
<path d="M34.8272 22.2335C34.3206 22.0646 34.4895 22.3179 34.3206 21.4736C34.1727 20.7342 36.482 20.6003 38.1376 20.8832C40.5092 21.2884 43.0618 23.2037 41.3243 23.1592C40.309 23.1332 39.7389 22.5391 38.1928 22.2335C36.6467 21.9279 35.3338 22.4024 34.8272 22.2335Z" fill="#4A1F2B"/>
<path d="M32.3037 32.2305C31.0652 32.2305 30.2301 33.0576 30.0894 33.4416C32.3037 33.8432 33.9164 33.8432 35.1556 33.4416C34.9915 32.768 33.5421 32.2305 32.3037 32.2305Z" fill="#AD4D4D"/>
<path d="M19.4136 29.8659C20.258 32.0612 21.9468 32.399 22.7911 32.399L21.9468 28.346C20.8209 28.1208 18.7382 28.1096 19.4136 29.8659Z" fill="#D88978"/>
<path d="M45.4942 30.5757C44.8099 32.8491 43.6082 32.4332 42.924 32.4332L43.852 29.8101C44.7643 29.577 46.0416 28.757 45.4942 30.5757Z" fill="#D88978"/>
<ellipse cx="25.023" cy="32.7161" rx="4.39071" ry="4.98177" fill="url(#paint0_radial)"/>
<ellipse cx="40.2218" cy="32.7161" rx="4.39071" ry="4.98177" fill="url(#paint1_radial)"/>
<path d="M38.8061 9.18946C36.2028 9.02151 32.9091 9.55333 32.7857 10.3666C32.0862 14.977 39.0152 18.3137 42.5003 18.9572C42.7466 19.2012 43.0242 19.4761 43.3849 19.8106C44.775 20.576 44.9675 18.323 44.9487 17.3444C44.8824 13.8935 43.3035 9.4796 38.8061 9.18946Z" fill="#4A1F2B"/>
<path d="M25.1919 22.324C21.5295 23.8746 19.8811 28.4141 19.8811 28.4141L17.6365 25.3131C17.0064 24.3225 16.2424 21.9278 18.2272 20.2739C19.0385 19.5978 19.0878 18.9347 19.145 18.1663C19.2276 17.0549 19.3267 15.7232 21.7714 13.8134C25.7208 10.728 29.8859 9.76446 31.6927 9.34647C31.7776 9.32684 32.2292 9.13198 32.3033 9.1146C33.9573 8.72697 33.2394 13.0648 33.2394 13.0648C33.2394 13.0648 29.6386 20.4414 25.1919 22.324Z" fill="#4A1F2B"/>
<path d="M22.0376 66.9095C25.7088 66.6884 26.6833 56.9925 26.7116 52.1721C24.6041 49.8141 20.7346 51.1896 19.0633 52.1721C18.5251 57.1767 18.3665 67.1306 22.0376 66.9095Z" fill="#4A1F2B"/>
<path d="M47.5036 66.908C39.9269 66.5985 38.2752 53.4934 38.2167 46.7449C42.5662 43.4437 50.1928 44.9002 53.6421 46.2757C54.7529 53.2821 55.0803 67.2175 47.5036 66.908Z" fill="#4A1F2B"/>
<path d="M45.4122 34.3706C45.8776 34.1561 46.6082 33.9483 47.4382 33.9281C46.8011 33.8169 46.125 33.9428 45.4122 34.3706Z" fill="#4A1F2B"/>
<path d="M49.6375 37.5108C50.267 37.6632 50.9182 37.9472 51.5471 38.4066C50.4654 36.0792 49.0817 34.2148 47.4382 33.9281C48.662 33.8982 50.102 34.2761 51.227 35.6409C52.0519 36.6416 52.6494 38.2771 53.0701 40.012C54.7008 42.3715 55.8129 46.22 56.1694 48.3855C55.5858 46.5398 54.6449 44.1383 53.4801 42.0279C53.7444 43.5945 53.8801 45.074 53.9245 46.0705C53.5951 44.343 53.0194 42.1019 52.2228 40.0139C51.4187 38.8919 50.5464 37.9909 49.6375 37.5108Z" fill="#4A1F2B"/>
<path d="M46.2141 37.9875C46.9058 37.4933 48.2161 37.1665 49.6375 37.5108C48.5316 36.9265 47.3715 36.9653 46.2141 37.9875Z" fill="#4A1F2B"/>
<path fill-rule="evenodd" clip-rule="evenodd" d="M20.9975 13.6643C21.8563 12.9933 22.7766 12.4048 23.7102 11.8935C23.7186 10.596 23.8593 8.73337 25.4179 8.208C27.2064 7.60513 29.4397 8.438 31.2285 9.11465C31.3258 9.10824 32.2246 9.11465 32.3036 9.11465C33.1257 10.7589 25.5194 13.1816 24.5217 13.4541C23.1868 13.8188 21.1489 14.9342 21.0817 15.2499C21.0143 15.5665 26.6346 13.7373 27 13.6643C27.6398 13.6178 24.7775 15.0281 23.7024 15.5656C22.6272 16.1031 22.4007 16.4608 21.5521 16.6407C20.4794 16.8681 20.5 16.5 19.9394 17.7158C24.24 16.6407 19.3641 18.4073 19.5 20C19.6359 21.5927 17.0869 22.4355 17.4533 25C16.8232 24.0094 15.4686 21.7787 17.4533 20.1248C18.1454 19.548 18.3105 18.8299 18.3744 17.9724C16.9064 18.814 15.617 20.0031 16.0592 21.4344C15.8256 20.8555 15.3684 19.9793 16.2017 19.0096C16.7039 18.4253 17.5343 17.7731 18.3744 17.4414C18.4773 16.4071 18.828 15.3592 20.9975 13.6643ZM23.8083 11.84C26.8031 10.2184 29.0413 9.32982 30.6909 9.11463C27.6384 8.6511 24.5125 9.09269 23.8083 11.84Z" fill="#7A464C"/>
<path d="M16.0592 21.4344C16.146 21.6496 16.1266 21.6526 16.0592 21.4344V21.4344Z" fill="#7A464C"/>
<path fill-rule="evenodd" clip-rule="evenodd" d="M15.5427 31.3586C11.7912 35.3169 8.26075 39.042 7.65972 43.5018C7.42231 45.2635 7.70622 47.0349 8.24316 48.7018C7.67671 49.7966 7.33498 51.2242 7.77715 52.835C7.85638 53.1236 7.96637 53.4181 8.10214 53.7159C6.88532 55.1989 6.09134 57.0939 6.72145 59.2293C7.93734 63.3498 10.887 64.7177 12.2099 64.8866C11.1966 64.2955 9.11949 62.5223 8.91684 60.1581C8.83067 59.1527 9.28092 57.8166 9.93518 56.4742C10.8472 57.5584 11.9022 58.5793 12.8495 59.407V61.7297C12.8495 62.0342 12.3133 62.2649 11.786 62.4919C10.7568 62.9349 9.76117 63.3634 12.8495 64.2971C13.0968 64.3718 13.3456 64.4477 13.5954 64.5238C18.0612 65.8854 22.8199 67.3362 24.7858 64.2971C25.0623 63.8697 20.5545 61.7197 18.3711 59.407C14.1346 54.9195 10.0025 49.0424 10.263 44.057C10.5079 39.3718 13.3453 35.0909 15.1012 32.7679C15.8678 31.7537 16.5515 30.8757 17.0834 30.1925C18.3855 28.5201 18.7782 28.0158 17.2515 29.5425C16.6832 30.1553 16.1103 30.7598 15.5427 31.3586ZM10.3913 55.5941C11.1427 56.7715 12.006 57.9094 12.8495 58.9119V57.622C12.8495 57.3007 12.3811 56.5623 11.7235 55.5256C11.5157 55.198 11.289 54.8406 11.0522 54.4572C10.8262 54.8253 10.6032 55.2069 10.3913 55.5941ZM9.71534 52.1335C9.17729 51.1083 8.66788 49.9899 8.28112 48.8182C8.00528 49.9882 8.29721 51.3885 8.91201 52.8409C9.17418 52.5878 9.44441 52.3516 9.71534 52.1335Z" fill="#7A464C"/>
<path d="M10.8006 48.8952C11.3382 51.9415 12.4134 56.9588 12.4134 54.8085C12.4134 53.5528 11.4398 47.2135 12.9509 42.9819C14.0275 39.9673 15.1012 39.2188 16.714 36.531C14.1921 40.3137 9.87072 43.6256 10.8006 48.8952Z" fill="#7A464C"/>
<path d="M12.0047 52.6582C12.5422 55.7045 13.6174 60.7218 13.6174 58.5715C13.6174 57.3158 12.822 48.8952 12.9509 47.82C13.0798 46.7449 13.4885 45.6697 15.1012 42.9819C12.5794 46.7646 11.0748 47.3886 12.0047 52.6582Z" fill="#7A464C"/>
</g>
<defs>
<radialGradient id="paint0_radial" cx="0" cy="0" r="1" gradientUnits="userSpaceOnUse" gradientTransform="translate(25.023 32.7161) rotate(90) scale(4.98177 4.39071)">
<stop stop-color="#D96A5B" stop-opacity="0.33"/>
<stop offset="1" stop-color="#DB7581" stop-opacity="0"/>
</radialGradient>
<radialGradient id="paint1_radial" cx="0" cy="0" r="1" gradientUnits="userSpaceOnUse" gradientTransform="translate(40.2218 32.7161) rotate(90) scale(4.98177 4.39071)">
<stop stop-color="#D96A5B" stop-opacity="0.33"/>
<stop offset="1" stop-color="#DB7581" stop-opacity="0"/>
</radialGradient>
</defs>
</svg>
