<svg width="24" height="24" viewBox="0 0 24 24" fill="none" xmlns="http://www.w3.org/2000/svg">
<path fill-rule="evenodd" clip-rule="evenodd" d="M20.9998 10C20.9998 14.4183 17.4181 18 12.9998 18C11.2133 18 9.56366 17.4144 8.2322 16.4248L2.99978 21.6572L1.58557 20.243L6.78754 15.041C5.66973 13.6652 4.99978 11.9108 4.99978 10C4.99978 5.58172 8.58151 2 12.9998 2C17.4181 2 20.9998 5.58172 20.9998 10ZM18.9998 10C18.9998 13.3137 16.3135 16 12.9998 16C9.68608 16 6.99978 13.3137 6.99978 10C6.99978 6.68629 9.68608 4 12.9998 4C16.3135 4 18.9998 6.68629 18.9998 10Z" fill="black"/>
</svg>
