<svg width="24" height="24" viewBox="0 0 24 24" fill="none" xmlns="http://www.w3.org/2000/svg">
<path d="M22 4C22 5.65685 20.6569 7 19 7C18.251 7 17.566 6.72548 17.0403 6.27156L7.95238 11.4647C7.98367 11.6384 8 11.8173 8 12C8 12.1919 7.98197 12.3797 7.94752 12.5616L16.948 17.8116C17.4845 17.3083 18.2063 17 19 17C20.6569 17 22 18.3431 22 20C22 21.6569 20.6569 23 19 23C17.3431 23 16 21.6569 16 20C16 19.861 16.0095 19.7242 16.0278 19.5902L6.93938 14.2889C6.41641 14.7325 5.73945 15 5 15C3.34315 15 2 13.6569 2 12C2 10.3431 3.34315 9 5 9C5.74905 9 6.43398 9.27452 6.95967 9.72844L16.0476 4.53532C16.0163 4.36162 16 4.18272 16 4C16 2.34315 17.3431 1 19 1C20.6569 1 22 2.34315 22 4Z" fill="black"/>
</svg>
