<svg width="24" height="24" viewBox="0 0 24 24" fill="none" xmlns="http://www.w3.org/2000/svg">
<path fill-rule="evenodd" clip-rule="evenodd" d="M17.8341 18.8341L20 21L21.4142 19.5858L4.41421 2.58579L3 4L4.97698 5.97698C4.43774 6.38866 3.94886 6.82442 3.51164 7.26164C2.56136 8.21192 1.83476 9.18798 1.34114 9.98536C1.0946 10.3836 0.899895 10.7474 0.762883 11.051C0.69473 11.2019 0.635667 11.3494 0.591674 11.4864C0.555605 11.5986 0.5 11.7912 0.5 12C0.5 12.2088 0.555605 12.4014 0.591674 12.5136C0.635667 12.6506 0.69473 12.7981 0.762883 12.949C0.899895 13.2526 1.0946 13.6164 1.34114 14.0146C1.83476 14.812 2.56136 15.7881 3.51164 16.7384C5.40618 18.6329 8.27057 20.5 12 20.5C14.2743 20.5 16.227 19.8056 17.8341 18.8341ZM16.3692 17.3692C15.1114 18.0498 13.6505 18.5 12 18.5C8.97943 18.5 6.59382 16.9921 4.92586 15.3241C4.09489 14.4932 3.46211 13.6411 3.04167 12.9619C2.83118 12.6219 2.68018 12.3353 2.58575 12.1262C2.56381 12.0775 2.54601 12.0355 2.53181 12C2.54601 11.9645 2.56381 11.9225 2.58575 11.8738C2.68018 11.6647 2.83118 11.3781 3.04167 11.0381C3.46211 10.3589 4.09489 9.50683 4.92586 8.67586C5.36898 8.23273 5.86276 7.8009 6.40564 7.40564L8.35732 9.35732C7.81806 10.0994 7.5 11.0125 7.5 12C7.5 14.4853 9.51472 16.5 12 16.5C12.9875 16.5 13.9006 16.1819 14.6427 15.6427L16.3692 17.3692ZM13.1959 14.1959C12.8407 14.3898 12.4332 14.5 12 14.5C10.6193 14.5 9.5 13.3807 9.5 12C9.5 11.5668 9.61019 11.1593 9.80407 10.8041L13.1959 14.1959ZM2.48699 11.871C2.48686 11.8709 2.48749 11.8739 2.48925 11.8802C2.488 11.8743 2.48712 11.8711 2.48699 11.871ZM8.06186 4.23343L9.64493 5.8165C10.3804 5.61496 11.166 5.5 12 5.5C15.0206 5.5 17.4062 7.00789 19.0741 8.67586C19.9051 9.50683 20.5379 10.3589 20.9583 11.0381C21.1688 11.3781 21.3198 11.6647 21.4142 11.8738C21.4362 11.9224 21.454 11.9645 21.4682 12C21.454 12.0355 21.4362 12.0775 21.4142 12.1262C21.3198 12.3353 21.1688 12.6219 20.9583 12.9619C20.5445 13.6304 19.925 14.4664 19.1133 15.2848L20.5275 16.6991C21.4586 15.7612 22.172 14.801 22.6589 14.0146C22.9054 13.6164 23.1001 13.2526 23.2371 12.949C23.3053 12.7981 23.3643 12.6506 23.4083 12.5136C23.4444 12.4014 23.5 12.2088 23.5 12C23.5 11.7912 23.4444 11.5986 23.4083 11.4864C23.3643 11.3494 23.3053 11.2019 23.2371 11.051C23.1001 10.7474 22.9054 10.3836 22.6589 9.98536C22.1652 9.18798 21.4386 8.21192 20.4884 7.26164C18.5938 5.36711 15.7294 3.5 12 3.5C10.5555 3.5 9.24074 3.78011 8.06186 4.23343ZM16.5 12C16.5 12.2131 16.4852 12.4228 16.4565 12.6281L11.3719 7.54348C11.5772 7.51482 11.7869 7.5 12 7.5C14.4853 7.5 16.5 9.51472 16.5 12ZM21.513 11.871C21.5129 11.8711 21.512 11.8743 21.5108 11.8802C21.5125 11.8738 21.5131 11.8708 21.513 11.871ZM21.5108 12.1198C21.512 12.1258 21.5129 12.129 21.513 12.129C21.5131 12.1291 21.5125 12.1261 21.5108 12.1198ZM2.48925 12.1198C2.48749 12.1261 2.48686 12.1291 2.48699 12.129C2.48712 12.1289 2.488 12.1257 2.48925 12.1198Z" fill="black"/>
</svg>
