<svg width="401" height="252" viewBox="0 0 401 252" fill="none" xmlns="http://www.w3.org/2000/svg">
<rect width="401" height="252" fill="#F1F3F4"/>
<path d="M82.7523 157.39L23.784 203.88C22.6838 204.934 22.0605 206.401 22.0605 207.935V229.957C22.0605 233.04 24.5282 235.539 27.5722 235.539H372.739C375.783 235.539 378.25 233.04 378.25 229.957V146.068C378.25 144.405 377.518 142.829 376.253 141.768L321.411 95.8063C319.565 94.2584 316.942 94.097 314.923 95.407L169.967 189.49C168.163 190.661 165.867 190.66 164.074 189.526C163.804 189.355 163.532 189.187 163.24 189.059L90.2933 157.176C90.0012 157.048 89.7289 156.88 89.4594 156.71C87.3502 155.374 84.588 155.631 82.7523 157.39Z" fill="#D6DADD"/>
<path d="M117 69.5C117 79.7173 108.717 88 98.5 88C88.2827 88 80 79.7173 80 69.5C80 59.2827 88.2827 51 98.5 51C108.717 51 117 59.2827 117 69.5Z" fill="#D6DADD"/>
</svg>
