<svg width="24" height="24" viewBox="0 0 24 24" fill="none" xmlns="http://www.w3.org/2000/svg">
<path d="M13 10.9775V6.97754H11V10.9775H7V12.9775H11V16.9775H13V12.9775H17V10.9775H13Z" fill="black"/>
<path fill-rule="evenodd" clip-rule="evenodd" d="M22 11.9775C22 17.5004 17.5228 21.9775 12 21.9775C6.47715 21.9775 2 17.5004 2 11.9775C2 6.45469 6.47715 1.97754 12 1.97754C17.5228 1.97754 22 6.45469 22 11.9775ZM20 11.9775C20 16.3958 16.4183 19.9775 12 19.9775C7.58172 19.9775 4 16.3958 4 11.9775C4 7.55926 7.58172 3.97754 12 3.97754C16.4183 3.97754 20 7.55926 20 11.9775Z" fill="black"/>
</svg>
