<svg width="24" height="24" viewBox="0 0 24 24" fill="none" xmlns="http://www.w3.org/2000/svg">
<path fill-rule="evenodd" clip-rule="evenodd" d="M16.5 12C16.5 9.51472 14.4853 7.5 12 7.5C9.51472 7.5 7.5 9.51472 7.5 12C7.5 14.4853 9.51472 16.5 12 16.5C14.4853 16.5 16.5 14.4853 16.5 12ZM14.5 12C14.5 10.6193 13.3807 9.5 12 9.5C10.6193 9.5 9.5 10.6193 9.5 12C9.5 13.3807 10.6193 14.5 12 14.5C13.3807 14.5 14.5 13.3807 14.5 12Z" fill="black"/>
<path fill-rule="evenodd" clip-rule="evenodd" d="M12 20.5C8.27057 20.5 5.40618 18.6329 3.51164 16.7384C2.56136 15.7881 1.83476 14.812 1.34114 14.0146C1.0946 13.6164 0.899895 13.2526 0.762883 12.949C0.69473 12.7981 0.635667 12.6506 0.591674 12.5136C0.555605 12.4014 0.5 12.2088 0.5 12C0.5 11.7912 0.555605 11.5986 0.591674 11.4864C0.635667 11.3494 0.69473 11.2019 0.762883 11.051C0.899895 10.7474 1.0946 10.3836 1.34114 9.98536C1.83476 9.18798 2.56136 8.21192 3.51164 7.26164C5.40618 5.36711 8.27057 3.5 12 3.5C15.7294 3.5 18.5938 5.36711 20.4884 7.26164C21.4386 8.21192 22.1652 9.18798 22.6589 9.98536C22.9054 10.3836 23.1001 10.7474 23.2371 11.051C23.3053 11.2019 23.3643 11.3494 23.4083 11.4864C23.4444 11.5986 23.5 11.7912 23.5 12C23.5 12.2088 23.4444 12.4014 23.4083 12.5136C23.3643 12.6506 23.3053 12.7981 23.2371 12.949C23.1001 13.2526 22.9054 13.6164 22.6589 14.0146C22.1652 14.812 21.4386 15.7881 20.4884 16.7384C18.5938 18.6329 15.7294 20.5 12 20.5ZM2.58575 12.1262C2.56381 12.0775 2.54601 12.0355 2.53181 12C2.54601 11.9645 2.56381 11.9225 2.58575 11.8738C2.68018 11.6647 2.83118 11.3781 3.04167 11.0381C3.46211 10.3589 4.09489 9.50683 4.92586 8.67586C6.59382 7.00789 8.97943 5.5 12 5.5C15.0206 5.5 17.4062 7.00789 19.0741 8.67586C19.9051 9.50683 20.5379 10.3589 20.9583 11.0381C21.1688 11.3781 21.3198 11.6647 21.4142 11.8738C21.4362 11.9225 21.454 11.9645 21.4682 12C21.454 12.0355 21.4362 12.0775 21.4142 12.1262C21.3198 12.3353 21.1688 12.6219 20.9583 12.9619C20.5379 13.6411 19.9051 14.4932 19.0741 15.3241C17.4062 16.9921 15.0206 18.5 12 18.5C8.97943 18.5 6.59382 16.9921 4.92586 15.3241C4.09489 14.4932 3.46211 13.6411 3.04167 12.9619C2.83118 12.6219 2.68018 12.3353 2.58575 12.1262Z" fill="black"/>
</svg>
